<svg width="41" height="41" viewBox="0 0 41 41" fill="none" xmlns="http://www.w3.org/2000/svg">
<path fill-rule="evenodd" clip-rule="evenodd" d="M35.651 24.5C34.9252 24.952 34.0706 25.008 33.421 24.647C32.5958 24.188 32.1421 23.113 32.1421 21.618V17.145C32.1421 14.985 31.2753 13.448 29.8259 13.033C27.3696 12.328 25.5223 15.289 24.828 16.401L20.496 23.321V14.863C20.4472 12.917 19.8058 11.753 18.5878 11.402C17.7818 11.17 16.576 11.263 15.4047 13.029L5.69924 28.383C4.39991 25.9528 3.72257 23.2467 3.72608 20.5C3.72608 11.251 11.2493 3.727 20.496 3.727C29.7426 3.727 37.2648 11.251 37.2648 20.5C37.2648 20.516 37.2689 20.53 37.2699 20.545C37.2699 20.561 37.2669 20.575 37.2679 20.591C37.3552 22.382 36.7665 23.806 35.651 24.5ZM40.9909 20.501V20.454L40.9899 20.408C40.9381 9.144 31.7655 0 20.4949 0C9.19491 0 0 9.196 0 20.5C0 31.803 9.19492 41 20.496 41C25.6816 41 30.6308 39.058 34.4299 35.533C35.1851 34.833 35.2297 33.654 34.5294 32.9C34.3646 32.7209 34.1651 32.576 33.9427 32.4739C33.7203 32.3717 33.4795 32.3142 33.2343 32.3049C32.9891 32.2956 32.7444 32.3346 32.5147 32.4196C32.285 32.5046 32.0748 32.6339 31.8965 32.8C28.817 35.673 24.737 37.2738 20.496 37.273C15.5448 37.273 11.0899 35.114 8.01751 31.69L16.7699 17.844V24.227C16.7699 27.293 17.9767 28.284 18.9887 28.574C20.0017 28.864 21.5495 28.666 23.1746 26.066L27.9887 18.377C28.143 18.129 28.2851 17.915 28.415 17.73V21.618C28.415 24.484 29.5802 26.776 31.6113 27.905C33.4423 28.923 35.7444 28.831 37.6201 27.665C39.8937 26.25 41.1188 23.643 40.9909 20.501Z" fill="#17181B"/>
</svg>
